# xmcd
#
# Track frame offsets:
#	150
#	26405
#	45297
#	63182
#	80127
#	100605
#
# Disc length: 1640 seconds
# Revision: 0
# Processed by: cddbd v1.5.2PL0 Copyright (c) Steve Scherf et al.
# Submitted via: dBpowerAMP V12.0
#
DISCID=3b066606
DTITLE=Liz Hodder - My House
DYEAR=1900
DGENRE=Country
TTITLE0=95
TTITLE1=U Can't Do That
TTITLE2=All The Eyes
TTITLE3=That Thing
TTITLE4=Live In My House
TTITLE5=Angel
EXTD=
EXTT0=
EXTT1=
EXTT2=
EXTT3=
EXTT4=
EXTT5=
PLAYORDER=
